<svg version="1.2" xmlns="http://www.w3.org/2000/svg" viewBox="0 0 600 300" width="600" height="300">
	<title>склад</title>
	<style>
		.s0 { fill: none;stroke: #000000;stroke-miterlimit:10;stroke-width: 13 } 
		.s1 { fill: none;stroke: #ffffff;stroke-miterlimit:10;stroke-width: 13 } 
		.s2 { fill: none;stroke: #000000;stroke-miterlimit:10;stroke-width: 9 } 
		.s3 { fill: none;stroke: #ffffff;stroke-miterlimit:10;stroke-width: 8 } 
		.s4 { fill: none;stroke: #ffffff;stroke-miterlimit:10;stroke-width: 10 } 
		.s5 { fill: none;stroke: #000000;stroke-miterlimit:10;stroke-width: 8 } 
		.s6 { fill: #000000 } 
	</style>
	<g id="Layer 1">
		<g id="Layer 1">
			<path id="Форма 6" fill-rule="evenodd" class="s0" d="m22.1 92.1l58.3 130.4z"/>
			<path id="Форма 7" fill-rule="evenodd" class="s1" d="m3.4 84.5l45.3 17.2zm48.8 137.5l47.6 3.3z"/>
			<path id="Форма 2" fill-rule="evenodd" class="s2" d="m57 115.8l-15.3-5.3c9.4 20.9 35.8 80.1 46 103l67.6 4.5 6.5-0.6 83.9-17.4-8.1-12.2"/>
			<path id="Форма 3" fill-rule="evenodd" class="s3" d="m224.4 188.4l24-4.9z"/>
			<path id="Форма 4" fill-rule="evenodd" class="s4" d="m49.5 102.8l9.4 19.7z"/>
			<path id="Форма 1" fill-rule="evenodd" class="s5" d="m52.4 92.8c29.6 7 52 13.9 71.9 22.9 16.3-8.7 50.1-25.7 74.6-28.6 10.5 23.6 28.9 60.8 42.9 88.3-33.4 7-62.6 15.5-85.8 25-20.6-5-36.5-7.5-56.5-7.7-14.3-30.4-41-87.5-47.1-99.9z"/>
			<path id="Форма 5" fill-rule="evenodd" class="s0" d="m63.4 96.5l46.4 97z"/>
			<path id="C" class="s6" aria-label="C"  d="m195.9 174.3q-14.4 3.3-26.3-2.9-11.8-6.3-18.6-21.4-4.5-9.8-4.2-17.7 0.3-8 5.1-13.1 4.8-5.2 13.3-7.1 5.1-1.2 11.6 0.4 2.5 0.6 5.2 1.8 0.5-2.6 1.6-4.2 1.1-1.5 1.2-1.7l2.3-0.5 7.4 16.3-3.6 0.9q-3-3.9-6.9-6.7-3.7-2.7-7.9-4.1-4.1-1.5-8.3-0.5-6.2 1.5-7.2 9.3-0.9 7.8 6.1 23.3 7.2 15.7 14.7 21.5 7.6 5.6 15.3 3.8 4.2-1 7-4.1 2.8-3.2 3.4-7.5 0.8-4.4-1.2-8.6l2.3-0.5q2.2 4.9 1.4 9.8-0.8 4.9-4.4 8.6-3.6 3.5-9.3 4.9z"/>
			<path id="клад" class="s6" aria-label="клад"  d="m264.9 184.2l-0.6-1.5 5.3-1.5-19.3-44.1-6.6-1.5-0.7-1.5h28l0.7 1.5-5.4 1.5 8.6 19.5h3.5q2.9 0 4.2-1.8 1.3-1.9 0.9-4.7l-1.4-9q-1.1-8 5.5-8 4.5 0 8 2.4 3.6 2.4 5.4 6.6 1.7 3.8 0.5 5.9-1.1 2.1-4.5 2.1-1.4 0-2.9-0.2l-1.3-0.3-5.9-13.5q-2.7 0.8-1.8 5l1.4 9q0.6 3.5-0.8 5.6-0.5 0.8-1.6 1.4h3q5.9 0 10.3 2.4 4.4 2.3 7.4 6.1l11.8 15.6 5.7 1.5 0.6 1.5h-10.5q-5.3 0-9.6-2.4-4.3-2.4-7.1-6.2l-12.7-16.5h-7l9.6 22.1 6.7 1.5 0.6 1.5zm67.7 1.5q-4.5 0-8.1-2.4-3.5-2.4-5.3-6.7-1.5-3.3-0.3-5.6 1.3-2.4 4.3-2.4 0.8 0 1.6 0.2 0.9 0.1 1.2 0.1l1.4 0.2 5.9 13.6q1.9-1.1 2.3-4.5 0.3-3.3-2.6-11.1l-10.9-29.5-7.9-2-0.7-1.5h46.5l0.7 1.5-5.3 1.5 19.2 44.1 6.7 1.5 0.7 1.5h-28.1l-0.6-1.5 5.3-1.5-19.5-44.6h-14.5l11.4 30.5q3.6 9.5 2.3 14.1-1.2 4.5-5.7 4.5zm77.5 0q-8.9 0-15.3-3.8-6.5-3.9-9.1-9.8-1.7-3.9-1.7-7.7-0.1-1.8 0.4-3.3 3.6-1 8.1-1.8 10-1.8 18.1-2.2l-1.3-3q-4.8-11.1-9.4-15.3-4.5-4.2-10.1-4.2-2.1 0-3.4 0.5l-1.2 0.5 6.6 15-1.2 0.3q-1.5 0.2-2.6 0.2-3.4 0-6.4-2-2.9-2.1-4.4-5.5-2-4.6 1.2-7.8 3.3-3.2 12.5-3.2 7.8 0 14.6 2.8 6.9 2.7 12 7.6 5.1 4.8 7.8 11.1l11.9 27.1 6.6 1.5 0.7 1.5h-9q-6 0-11-3.7-2-1.5-3.8-3.9-0.3 2.6-1.4 4.6-2.5 4.5-9.2 4.5zm2.5-3.5q3.7 0 4.9-4.1 0.5-1.5 0.6-4l-6.4-14.5q-4.6 0-8.6 0.5-2.9 0.4-3.9 0.5-0.1 1.1 0.3 3 0.6 3.8 2.3 7.5 2.4 5.6 5.3 8.4 2.9 2.7 5.5 2.7zm40.1 18.5l-8.3-19h8q1.1-1.1 1.9-3.6 1.6-4.4-0.8-11l-10.9-29.5-7.9-2-0.6-1.5h47.5l0.6 1.5-5.3 1.5 19.5 44.6h9l8.3 19h-3q-3.3-1.7-6.1-4.1-6.6-5.4-9.6-12.4h-38q3 6.9 1.1 12.4-0.6 2.4-2.4 4.1zm3.2-19h24.5l-19.7-45.1h-15.5l11.3 30.5q2.3 6.3 1 11-0.5 2.2-1.6 3.6z"/>
		</g>
	</g>
</svg>