<svg version="1.2" xmlns="http://www.w3.org/2000/svg" viewBox="0 0 600 300" width="600" height="300">
	<title>склад</title>
	<style>
		.s0 { fill: none;stroke: #000000;stroke-miterlimit:10;stroke-width: 13 } 
		.s1 { fill: none;stroke: #ffffff;stroke-miterlimit:10;stroke-width: 13 } 
		.s2 { fill: none;stroke: #000000;stroke-miterlimit:10;stroke-width: 9 } 
		.s3 { fill: none;stroke: #ffffff;stroke-miterlimit:10;stroke-width: 8 } 
		.s4 { fill: none;stroke: #ffffff;stroke-miterlimit:10;stroke-width: 10 } 
		.s5 { fill: none;stroke: #000000;stroke-miterlimit:10;stroke-width: 8 } 
		.s6 { fill: #000000 } 
	</style>
	<g id="Layer 1">
		<g id="Layer 1">
			<path id="Форма 6" fill-rule="evenodd" class="s0" d="m22.1 92.1l58.3 130.4z"/>
			<path id="Форма 7" fill-rule="evenodd" class="s1" d="m3.4 84.5l45.3 17.2zm48.8 137.5l47.6 3.3z"/>
			<path id="Форма 2" fill-rule="evenodd" class="s2" d="m57 115.8l-15.3-5.3c9.4 20.9 35.8 80.1 46 103l67.6 4.5 6.5-0.6 83.9-17.4-8.1-12.2"/>
			<path id="Форма 3" fill-rule="evenodd" class="s3" d="m224.4 188.4l24-4.9z"/>
			<path id="Форма 4" fill-rule="evenodd" class="s4" d="m49.5 102.8l9.4 19.7z"/>
			<path id="Форма 1" fill-rule="evenodd" class="s5" d="m52.4 92.8c29.6 7 52 13.9 71.9 22.9 16.3-8.7 50.1-25.7 74.6-28.6 10.5 23.6 28.9 60.8 42.9 88.3-33.4 7-62.6 15.5-85.8 25-20.6-5-36.5-7.5-56.5-7.7-14.3-30.4-41-87.5-47.1-99.9z"/>
			<path id="Форма 5" fill-rule="evenodd" class="s0" d="m63.4 96.5l46.4 97z"/>
			<path id="C" class="s6" aria-label="C"  d="m195.9 174.3q-14.4 3.3-26.3-2.9-11.8-6.3-18.6-21.4-4.5-9.8-4.2-17.7 0.3-8 5.1-13.1 4.8-5.2 13.3-7.1 5.1-1.2 11.6 0.4 2.5 0.6 5.2 1.8 0.5-2.6 1.6-4.2 1.1-1.5 1.2-1.7l2.3-0.5 7.4 16.3-3.6 0.9q-3-3.9-6.9-6.7-3.7-2.7-7.9-4.1-4.1-1.5-8.3-0.5-6.2 1.5-7.2 9.3-0.9 7.8 6.1 23.3 7.2 15.7 14.7 21.5 7.6 5.6 15.3 3.8 4.2-1 7-4.1 2.8-3.2 3.4-7.5 0.8-4.4-1.2-8.6l2.3-0.5q2.2 4.9 1.4 9.8-0.8 4.9-4.4 8.6-3.6 3.5-9.3 4.9z"/>
			<g id="кккк">
				<path id="д" class="s6" aria-label="д"  d="m444.8 179.3l-8.3-17.7 7.7 1.2q1.1-0.8 1.9-2.7 1.5-3.6-0.9-9.7l-11-27.2-7.7-2.9-0.7-1.4 46.2 7.2 0.7 1.4-5.2 0.5 19.6 41.5 8.7 1.4 8.4 17.7-3-0.5q-3.2-2-5.9-4.5-6.5-5.6-9.6-12.2l-37-5.7q3.1 6.4 1.3 10.9-0.6 2-2.3 3.2zm2.9-16l23.8 3.7-19.8-42-15-2.3 11.4 28.1q2.3 5.8 1.1 9.7-0.5 1.7-1.5 2.8z"/>
				<path id="а" class="s6" aria-label="а"  d="m398.4 159.7q-8.5-0.8-14.7-4.8-6.1-4-8.6-9.5-1.6-3.7-1.5-7.1-0.1-1.6 0.3-3 3.6-0.6 7.9-0.9 9.6-0.8 17.4-0.5l-1.3-2.8q-4.5-10.4-8.9-14.6-4.3-4.2-9.6-4.7-2.1-0.1-3.3 0.2l-1.1 0.4 6.1 14.1-1.1 0.1q-1.4 0.1-2.5 0-3.3-0.3-6.1-2.3-2.8-2.2-4.2-5.4-1.9-4.3 1.2-6.9 3.2-2.7 12-1.9 7.5 0.7 14.1 3.8 6.5 3 11.3 7.9 4.9 4.7 7.5 10.7l11.1 25.4 6.4 1.9 0.6 1.4-8.6-0.8q-5.8-0.5-10.5-4.2-1.9-1.6-3.7-3.8-0.3 2.2-1.3 4-2.4 3.8-8.9 3.3zm2.4-3q3.6 0.3 4.8-3.2 0.5-1.3 0.6-3.6l-6-13.6q-4.4-0.4-8.2-0.3-2.8 0.1-3.9 0.1 0 1 0.3 2.8 0.6 3.5 2.1 6.9 2.4 5.3 5.1 8 2.7 2.7 5.2 2.9z"/>
				<path id="л" class="s6" aria-label="л"  d="m320.9 157.4q-4.2 0.1-7.6-2-3.5-2.2-5.5-6.1-1.6-3.1-0.6-5.3 1-2.4 3.7-2.5 0.8 0 1.6 0.2 0.8 0.1 1.1 0l1.3 0.2 6.4 12.6q1.7-1.1 1.8-4.2 0.1-3.2-3.2-10.5l-12.2-27.7-7.4-1.6-0.7-1.4 43.1-1.4 0.7 1.4-4.9 1.6 21 41.2 6.3 1.2 0.7 1.4-25.9 0.8-0.8-1.4 4.9-1.5-21.2-41.7-13.5 0.4 12.7 28.6q4 9 3.2 13.3-0.8 4.3-5 4.4z"/>
				<path id="к" class="s6" aria-label="к"  d="m251.2 164.3l-0.6-1.4 4.8-2.1-19.3-40.6-6.1-0.7-0.7-1.3 25.7-3.6 0.6 1.4-4.8 2.1 8.5 18 3.2-0.4q2.7-0.4 3.8-2.3 1.1-2.1 0.7-4.8l-1.6-8.6q-1.3-7.7 4.7-8.5 4.1-0.6 7.5 1.3 3.3 1.9 5.1 5.8 1.7 3.5 0.7 5.7-0.9 2.2-4 2.6-1.3 0.2-2.7 0.2l-1.2-0.1-5.9-12.5q-2.4 1.1-1.5 5.1l1.7 8.7q0.6 3.3-0.6 5.5-0.4 0.9-1.4 1.6l2.7-0.4q5.4-0.7 9.5 1.1 4.1 1.7 7.1 5l11.4 13.7 5.2 0.7 0.6 1.4-9.6 1.3q-4.8 0.7-8.9-1.1-4-1.8-6.7-5.1l-12.3-14.5-6.4 0.9 9.7 20.3 6.1 0.6 0.7 1.4z"/>
			</g>
		</g>
	</g>
</svg>